# xmcd
#
# Track frame offsets:
#	150
#	10745
#	24597
#	37935
#	51412
#	64570
#	74767
#	88425
#	105615
#	117412
#
# Disc length: 1791 seconds
#
# Revision: 1
# Processed by: cddbd v1.5.1PL0 Copyright (c) Steve Scherf et al.
# Submitted via: audiograbber 1.83.01
#
DISCID=8906fd0a
DTITLE=Various Artist - Road To Nashville 3
DYEAR=1900
DGENRE=
TTITLE0=The Statler Brothers - Flowers on the Wall
TTITLE1=Lefty Frizzell - Saginaw Michigan
TTITLE2=Tammy Wynette - D-I-V-O-R-C-E
TTITLE3=Claude King - Wolverton Mountain
TTITLE4=David Houston - Almost Persuaded
TTITLE5=Billy Walker - Charlie's Shoes
TTITLE6=Jimmy Dean - Big Bad John
TTITLE7=Ray Price - For the Good Times
TTITLE8=Johnny Paycheck - Take This Job and Shove It
TTITLE9=Johnny Cash - A Boy Named Sue [Live]
EXTD=
EXTT0=
EXTT1=
EXTT2=
EXTT3=
EXTT4=
EXTT5=
EXTT6=
EXTT7=
EXTT8=
EXTT9=
PLAYORDER=
